/* XPM */
static char *_78fedc0b44c4badeda477227b2dd5f4WdpV3DfFk3Ob3M3f[] = {
/* columns rows colors chars-per-pixel */
"16 16 60 1 ",
"  c None",
". c #A2A2A2",
"X c #A7A7A7",
"o c gray66",
"O c #AAAAAA",
"+ c gray67",
"@ c gray69",
"# c gray70",
"$ c #B4B4B4",
"% c #B6B6B6",
"& c #B7B7B7",
"* c gray72",
"= c #B9B9B9",
"- c gray73",
"; c #BCBCBC",
": c gray74",
"> c gray75",
", c #C0C0C0",
"< c gray76",
"1 c #C3C3C3",
"2 c #C5C5C5",
"3 c gray78",
"4 c gray79",
"5 c #CACACA",
"6 c #CBCBCB",
"7 c gray80",
"8 c #CDCDCD",
"9 c #CECECE",
"0 c gray81",
"q c #D0D0D0",
"w c gray82",
"e c #D2D2D2",
"r c LightGray",
"t c gray83",
"y c #D5D5D5",
"u c gray84",
"i c #D8D8D8",
"p c gray85",
"a c gray86",
"s c gainsboro",
"d c #DDDDDD",
"f c gray87",
"g c #DFDFDF",
"h c gray88",
"j c #E1E1E1",
"k c #E2E2E2",
"l c gray89",
"z c #E4E4E4",
"x c gray90",
"c c #E6E6E6",
"v c #E7E7E7",
"b c #E9E9E9",
"n c #EAEAEA",
"m c #ECECEC",
"M c #EEEEEE",
"N c #EFEFEF",
"B c gray94",
"V c #F3F3F3",
"C c gray96",
"Z c gray97",
/* pixels */
"                ",
"                ",
"dw        8m d8 ",
"noc      >3  Xk ",
" u,      &k Z*  ",
" n&   #3>o*5>o&n",
"  >c d*8,#>8,#&c",
"  nw   Z5k m8   ",
"   a   mwZ Bd   ",
"   cZ  dd  kB   ",
"   md8wka5wkd88 ",
"    &ka,  5a    ",
"    5u*u  ,c    ",
"    w.&k ,&     ",
"     ak  nm     ",
"                "
};
