/* XPM */
static char *_70218a94a6f4a0b9e76e4da91733effsOpET4vMDlfIrbBR[] = {
/* columns rows colors chars-per-pixel */
"32 32 126 2 ",
"   c None",
".  c #343434",
"X  c gray24",
"o  c gray27",
"O  c gray30",
"+  c #515151",
"@  c #535353",
"#  c gray33",
"$  c #565656",
"%  c #5B5B5B",
"&  c #5D5D5D",
"*  c gray37",
"=  c #606060",
"-  c #626262",
";  c gray40",
":  c #676767",
">  c #686868",
",  c DimGray",
"<  c #6A6A6A",
"1  c gray42",
"2  c #6C6C6C",
"3  c gray44",
"4  c #717171",
"5  c #727272",
"6  c gray45",
"7  c gray46",
"8  c #777777",
"9  c #797979",
"0  c #7C7C7C",
"q  c gray49",
"w  c #7E7E7E",
"e  c gray50",
"r  c #808080",
"t  c gray51",
"y  c #838383",
"u  c #848484",
"i  c gray52",
"p  c gray53",
"a  c #888888",
"s  c #898989",
"d  c gray54",
"f  c gray55",
"g  c #8D8D8D",
"h  c #8E8E8E",
"j  c gray56",
"k  c #909090",
"l  c gray57",
"z  c #929292",
"x  c #939393",
"c  c #959595",
"v  c #979797",
"b  c #989898",
"n  c gray60",
"m  c #9A9A9A",
"M  c #9B9B9B",
"N  c gray61",
"B  c #9D9D9D",
"V  c gray62",
"C  c #9F9F9F",
"Z  c #A0A0A0",
"A  c gray63",
"S  c #A4A4A4",
"D  c gray65",
"F  c #A7A7A7",
"G  c gray66",
"H  c #A9A9A9",
"J  c #AAAAAA",
"K  c gray67",
"L  c #ACACAC",
"P  c gray68",
"I  c #AEAEAE",
"U  c #AFAFAF",
"Y  c #B1B1B1",
"T  c #B2B2B2",
"R  c gray70",
"E  c gray71",
"W  c #B7B7B7",
"Q  c gray72",
"!  c #B9B9B9",
"~  c gray73",
"^  c #BBBBBB",
"/  c #BCBCBC",
"(  c gray74",
")  c gray75",
"_  c #C0C0C0",
"`  c #C1C1C1",
"'  c gray76",
"]  c #C3C3C3",
"[  c gray77",
"{  c #C5C5C5",
"}  c gray78",
"|  c #C8C8C8",
" . c gray79",
".. c gray80",
"X. c #CECECE",
"o. c #D0D0D0",
"O. c gray82",
"+. c #D2D2D2",
"@. c LightGray",
"#. c gray84",
"$. c #D7D7D7",
"%. c gray85",
"&. c #DADADA",
"*. c gray86",
"=. c gray87",
"-. c #DFDFDF",
";. c #E2E2E2",
":. c gray89",
">. c #E4E4E4",
",. c #E6E6E6",
"<. c #E7E7E7",
"1. c #E9E9E9",
"2. c #EAEAEA",
"3. c gray92",
"4. c #EEEEEE",
"5. c #EFEFEF",
"6. c gray94",
"7. c #F1F1F1",
"8. c gray95",
"9. c #F3F3F3",
"0. c #F4F4F4",
"q. c gray96",
"w. c #F6F6F6",
"e. c gray97",
"r. c #F8F8F8",
"t. c #F9F9F9",
/* pixels */
"                                                                ",
"                                                                ",
"                                                                ",
"    w.                                  t.t.          w.  w.    ",
"*.N i @.                                F H Y         x n F     ",
"    w.w.                              9.w.w.        w.w.t.      ",
"  U A U                               c / ^         x U U       ",
"    N E N                           @.c Y <.        ^ A *.    t.",
"    3.5.5.                          9.3.9.          3.5.t.      ",
"    9.f 7 N                       9.x * N         $.x r         ",
"                                                                ",
"      H $ a 5.          $ 9 i n x , 7 X 7 2 f N a 7 * + : : A   ",
"                                                                ",
"        , c x         5 - i x F n 7 0 o 0 9 n H c r , % 5 5 n   ",
"                                                                ",
"          F F H               *.U r a         Y N x             ",
"            9.9.              9.9.5.w.        w.9.w.            ",
"          w.] { 9.            X.] F <.         .^ $.            ",
"            @.{ @.          / { { /         ] @.]               ",
"                                                                ",
"              { @./ H H n ^ / X. .^ E x Y U  .$. ./ ^ N Y N     ",
"              t.w.5.w.9.  t.    w.9.9.3.w.w.t.t.w.w.3.w.w.t.    ",
"              t.0 - i     2 0 f         X.* i *.                ",
"                                                                ",
"                E 0 7 ;.: f n ^         i 0 c                   ",
"                                                                ",
"                  O 5 + r x f         . i 9                     ",
"                    ;.<.%.<.          %.<.w.                    ",
"                    E H ] {           n ] t.                    ",
"                                                                ",
"                                                                ",
"                                                                "
};
