/* XPM */
static char *cec29adaee0341fbeaa146a822b4b03fNSE6oct5TP9a064F[] = {
/* columns rows colors chars-per-pixel */
"64 64 166 2 ",
"   c None",
".  c #353535",
"X  c #373737",
"o  c #393939",
"O  c #3A3A3A",
"+  c gray25",
"@  c #444444",
"#  c #484848",
"$  c #494949",
"%  c #4B4B4B",
"&  c #4E4E4E",
"*  c gray31",
"=  c #505050",
"-  c #515151",
";  c gray32",
":  c #535353",
">  c #565656",
",  c #585858",
"<  c gray35",
"1  c #5A5A5A",
"2  c #5B5B5B",
"3  c gray36",
"4  c gray37",
"5  c #5F5F5F",
"6  c #606060",
"7  c gray38",
"8  c #626262",
"9  c gray39",
"0  c #646464",
"q  c #656565",
"w  c gray40",
"e  c #676767",
"r  c #686868",
"t  c #6A6A6A",
"y  c gray42",
"u  c #6C6C6C",
"i  c #6D6D6D",
"p  c gray43",
"a  c #6F6F6F",
"s  c gray44",
"d  c #727272",
"f  c gray45",
"g  c #747474",
"h  c gray46",
"j  c #767676",
"k  c #777777",
"l  c gray47",
"z  c #797979",
"x  c gray48",
"c  c #7C7C7C",
"v  c gray49",
"b  c #7E7E7E",
"n  c gray50",
"m  c #808080",
"M  c #818181",
"N  c gray51",
"B  c #838383",
"V  c #848484",
"C  c gray52",
"Z  c #868686",
"A  c gray53",
"S  c #888888",
"D  c #898989",
"F  c gray54",
"G  c #8B8B8B",
"H  c gray55",
"J  c #8D8D8D",
"K  c #8E8E8E",
"L  c gray56",
"P  c #909090",
"I  c gray57",
"U  c #929292",
"Y  c #939393",
"T  c gray58",
"R  c #959595",
"E  c gray59",
"W  c #979797",
"Q  c #989898",
"!  c gray60",
"~  c #9A9A9A",
"^  c #9B9B9B",
"/  c gray61",
"(  c #9D9D9D",
")  c gray62",
"_  c #9F9F9F",
"`  c #A0A0A0",
"'  c gray63",
"]  c #A2A2A2",
"[  c gray64",
"{  c #A4A4A4",
"}  c #A5A5A5",
"|  c gray65",
" . c #A7A7A7",
".. c gray66",
"X. c #A9A9A9",
"o. c #AAAAAA",
"O. c gray67",
"+. c #ACACAC",
"@. c gray68",
"#. c #AEAEAE",
"$. c #AFAFAF",
"%. c gray69",
"&. c #B1B1B1",
"*. c #B2B2B2",
"=. c gray70",
"-. c #B4B4B4",
";. c gray71",
":. c #B6B6B6",
">. c #B7B7B7",
",. c gray72",
"<. c #B9B9B9",
"1. c gray73",
"2. c #BBBBBB",
"3. c #BCBCBC",
"4. c gray74",
"5. c gray",
"6. c gray75",
"7. c #C0C0C0",
"8. c #C1C1C1",
"9. c gray76",
"0. c #C3C3C3",
"q. c gray77",
"w. c #C5C5C5",
"e. c #C6C6C6",
"r. c gray78",
"t. c #C8C8C8",
"y. c gray79",
"u. c #CACACA",
"i. c #CBCBCB",
"p. c gray80",
"a. c #CDCDCD",
"s. c #CECECE",
"d. c gray81",
"f. c #D0D0D0",
"g. c gray82",
"h. c #D2D2D2",
"j. c LightGray",
"k. c gray83",
"l. c #D5D5D5",
"z. c gray84",
"x. c #D7D7D7",
"c. c #D8D8D8",
"v. c gray85",
"b. c #DADADA",
"n. c gray86",
"m. c gainsboro",
"M. c #DDDDDD",
"N. c gray87",
"B. c #DFDFDF",
"V. c gray88",
"C. c #E1E1E1",
"Z. c #E2E2E2",
"A. c gray89",
"S. c #E4E4E4",
"D. c gray90",
"F. c #E6E6E6",
"G. c #E7E7E7",
"H. c gray91",
"J. c #E9E9E9",
"K. c #EAEAEA",
"L. c gray92",
"P. c #ECECEC",
"I. c gray93",
"U. c #EEEEEE",
"Y. c #EFEFEF",
"T. c gray94",
/* pixels */
"                                                                                                                                ",
"                                                                                                                                ",
"                                                                                                                                ",
"                                                                                                                                ",
"                                                                                                                                ",
"                                                                                                                                ",
"                                                                                                                                ",
"    D.  D.  D.                                                                  U.    A.                    H.T.  H.  H.        ",
"  $.7 J < C p                                                                 u.C w } @ J >.                f b U % W S         ",
"  x.j.v.u.j.x.                                                                H.v.1.U.e.v.H.                j.x.m.1.v.D.        ",
"                                                                                                                                ",
"    D.5.~ 5.$.$.x.                                                          u.o.>.$.a.J                 m.1.~ >.7.W U.          ",
"    j.~ b ~ ' t H.                                                          =.C ' f 5.j                 5.U C ) o.w             ",
"              U.                                                                  U.                              U.            ",
"                                                                                                                                ",
"        C ) B S W C                                                     T.U B S J B =.                  u.W p U U             U.",
"        ' o.5.b 7.o.                                                    T.' o.~ 1.B U.                  u.} ) $.>.              ",
"                                                                                                                                ",
"          H.>.u.e.=.u.H.                                                } a.1.e.5.                    x.5.u.$.U.                ",
"          =.W 7 } t ~ x.                                              5.j U B z J U.                  ) b J t m.                ",
"              D.  U.                                                    U.U.U.U.                        U.U.U.                  ",
"                                                                                                                                ",
"              u.a.>.x.7.A.                      u.7.x.o.H.5.j.7.7.x.1.H.o.x.5.u.u.a.v.o.x.e.x.1.a.x.o.m.7.x.>.a.x.1.v.1.j.U.    ",
"              - ~ w W 5 5.                    H.W j W - W C f C j W - } f S z j J 7 o.< W j z b b ) & U z C p C W & W f U A.    ",
"              D.      U.                              H.    U.      H.        T.  H.        T.  U.  H.            H.            ",
"                                                                                                                                ",
"                j.p } b o.7                 A.z ~ S } w =.S U J C } p 7.p ' C J ~ C =.7 } S W B W } w o.S ) j W } p o.b ' p m.  ",
"                j.' 7.~ >.$.                H.W 5.o.u.S 7.>.) 5.$.7.S e.=.=.>.} 7.J v.) 7.o.o.1.} x.S 7.o.=.o.1.7.S 7.$.5.~ D.  ",
"                                                                                                                                ",
"                    T.H.  A.                                    H.  D.  A.U.                  D.U.  A.T.T.                      ",
"                  m.~ p ' t U =.                              } z ) < 5.w ~ u.              H.B J } - ) $.                      ",
"                  H.u.>.e.u.>.H.                              a.7.j.$.a.e.7.U.              D.u.1.m.o.a.m.                      ",
"                                                                                                                                ",
"                      >.e.S 7.=.o.                          =.} } 5.~ x.J                 j.>.) >.5.J                           ",
"                      B J B z ~ j                         A.w J z ) % o.B                 $.f S j =.%                           ",
"                                                                                                                                ",
"                          U.    T.                        T.        U.                        U.                                ",
"                        D.p ' ~ z ) a.                  5.C W J S o.p A.                ' J ~ B W o.                            ",
"                        v.=.$.e.~ 5.A.                  5.1.} 1.$.7.S                   1.o.=.1.o.a.                            ",
"                                                                                                                                ",
"                            U.H.A.U.H.T.v.  U.H.H.D.  x.  m.  A.D.T.A.  j.  D.H.D.T.U.x.T.H.  m.U.  x.  D.  m.H.T.D.  A.        ",
"                            7 z % b < C o C j & j 7 B X C f 7 p 5 B o ~ - z 7 5 b & ~ o B 5 t 7 t C X B w j - f B X B C         ",
"                            v.  x.U.v.T.A.U.H.v.U.D.  j.U.H.v.T.D.U.j.U.U.A.D.A.T.j.  m.U.A.A.U.m.  j.U.A.A.D.U.U.j.U.          ",
"                                                                                                                                ",
"                              H.=.a.7.j.}         m.a.} v.5.u.5.v.                u.x.} j.7.j.                                  ",
"                              x.w ~ z ' <         =.) 5 ' J b S >.                j =.7 ) b '                                   ",
"                                D.  H.  U.        T.  D.    H.                    A.  U.  U.                                    ",
"                                                                                                                                ",
"                                H.o.U =.7 $.$.  o.J $.w 5.J ) v.              v.~ U 1.w o.e.                                    ",
"                                A.o.b $.B } >.D.o.J >.p o.' S                 a.o.p e.B o.a.                                    ",
"                                                                                                                                ",
"                                    U.H.v.H.H.A.D.A.H.v.T.A.                U.A.D.D.H.v.                                        ",
"                                    ' ) < ) U j U b ' > $.J                 $.b U j =.<                                         ",
"                                    7.j.$.a.e.$.u.5.j.} a.a.                j.>.a.o.m.$.                                        ",
"                                                                                                                                ",
"                                        J 5.>.o.$.} 5.C                     u.$.$.=.5.                                          ",
"                                      D.> ~ S 7 W z ) @                     o.p ~ - m.                                          ",
"                                                                                                                                ",
"                                                                                                                                ",
"                                                                                                                                ",
"                                                                                                                                ",
"                                                                                                                                ",
"                                                                                                                                ",
"                                                                                                                                "
};
